# xmcd
#
# Track frame offsets:
#	183
#	7458
#	17945
#	31045
#	40798
#	48933
#	66943
#	76818
#	91313
#	103805
#	109850
#	122045
#	129938
#	144335
#	153618
#	162638
#	172468
#	184703
#	196405
#	205775
#	218420
#	230480
#	241568
#	249610
#
# Disc length: 3455 seconds
#
# Revision: 1
# Processed by: cddbd v1.5.2PL0 Copyright (c) Steve Scherf et al.
# Submitted via: audiograbber 1.83.01
#
DISCID=4b0d7d18
DTITLE=Country Gazette - Traitor In Our Midst/Don't Give Up Your Day Job
DYEAR=1972
DGENRE=Bluegrass
TTITLE0=Lost Indian
TTITLE1=Keep On Pushin'
TTITLE2=I Wish You Knew
TTITLE3=Hot Burrito Breakdown
TTITLE4=I Might Take You Back Again
TTITLE5=Forget Me Not
TTITLE6=Tried So Hard
TTITLE7=Anna
TTITLE8=If You're Ever Gonna Love Me
TTITLE9=Aggravation
TTITLE10=Sound Of Goodbye
TTITLE11=Swing Low Sweet Chariot
TTITLE12=Huckleberry Hornpipe
TTITLE13=The Fallen Eagle
TTITLE14=I Don't Beleive You've Met My Baby
TTITLE15=Deputy Dalton
TTITLE16=Teach Your Children
TTITLE17=My Oklahoma
TTITLE18=Down The Road
TTITLE19=Winterwood
TTITLE20=Honky Cat
TTITLE21=Snowball
TTITLE22=Lonesome Blues
TTITLE23=Singing All Day (And Dinner On The Ground)
EXTD=
EXTT0=
EXTT1=
EXTT2=
EXTT3=
EXTT4=
EXTT5=
EXTT6=
EXTT7=
EXTT8=
EXTT9=
EXTT10=
EXTT11=
EXTT12=
EXTT13=
EXTT14=
EXTT15=
EXTT16=
EXTT17=
EXTT18=
EXTT19=
EXTT20=
EXTT21=
EXTT22=
EXTT23=
PLAYORDER=
